<svg xmlns="http://www.w3.org/2000/svg" width="1200" height="800" viewBox="0 0 1200 800">
  <defs>
    <linearGradient id="sky" x1="0" y1="0" x2="0" y2="1">
      <stop offset="0" stop-color="#1e1b4b"/>
      <stop offset="1" stop-color="#7c3aed"/>
    </linearGradient>
  </defs>
  <rect width="1200" height="800" fill="url(#sky)"/>
  <circle cx="980" cy="150" r="70" fill="#fde68a" opacity="0.9"/>
  <g fill="#0f172a" opacity="0.85">
    <rect x="80" y="430" width="120" height="370"/>
    <rect x="230" y="330" width="90" height="470"/>
    <rect x="350" y="500" width="140" height="300"/>
    <rect x="520" y="280" width="100" height="520"/>
    <rect x="650" y="420" width="120" height="380"/>
    <rect x="800" y="350" width="110" height="450"/>
    <rect x="940" y="470" width="150" height="330"/>
  </g>
  <g fill="#fbbf24" opacity="0.8">
    <rect x="250" y="360" width="14" height="14"/><rect x="284" y="360" width="14" height="14"/>
    <rect x="250" y="400" width="14" height="14"/><rect x="284" y="430" width="14" height="14"/>
    <rect x="545" y="320" width="14" height="14"/><rect x="579" y="360" width="14" height="14"/>
    <rect x="820" y="390" width="14" height="14"/><rect x="854" y="430" width="14" height="14"/>
  </g>
  <text x="60" y="740" font-family="Georgia, serif" font-size="64" fill="#ffffff" opacity="0.92">Tokyo</text>
</svg>
